<svg xmlns="http://www.w3.org/2000/svg" viewBox="0 0 700 500" preserveAspectRatio="xMidYMid slice">
  <defs>
    <linearGradient id="bg3" x1="0" y1="0" x2="1" y2="1"><stop offset="0" stop-color="#0a1628"/><stop offset="1" stop-color="#241a4f"/></linearGradient>
    <linearGradient id="gold3" x1="0" y1="0" x2="1" y2="0"><stop offset="0" stop-color="#c9953a"/><stop offset="1" stop-color="#e8b84b"/></linearGradient>
  </defs>
  <rect width="700" height="500" fill="url(#bg3)"/>
  <g stroke="#ffffff" stroke-opacity="0.05"><path d="M0 125h700M0 250h700M0 375h700M140 0v500M280 0v500M420 0v500M560 0v500"/></g>
  <g>
    <rect x="165" y="150" width="150" height="170" rx="11" fill="#122a4d" stroke="#2d5c94" stroke-width="2"/>
    <rect x="184" y="170" width="80" height="11" rx="5.5" fill="url(#gold3)"/>
    <rect x="184" y="194" width="112" height="7" rx="3.5" fill="#ffffff" opacity="0.28"/>
    <rect x="184" y="211" width="112" height="7" rx="3.5" fill="#ffffff" opacity="0.28"/>
    <rect x="184" y="228" width="86" height="7" rx="3.5" fill="#ffffff" opacity="0.28"/>
    <rect x="184" y="252" width="112" height="7" rx="3.5" fill="#ffffff" opacity="0.18"/>
    <circle cx="276" cy="288" r="19" fill="none" stroke="#11c4a8" stroke-width="4"/>
    <path d="M267 288 l7 7 l13 -15" stroke="#11c4a8" stroke-width="4" fill="none" stroke-linecap="round" stroke-linejoin="round"/>
  </g>
  <path d="M385 195 C450 187 500 200 545 240" stroke="#e06a5a" stroke-width="4.5" fill="none" stroke-dasharray="2 9" stroke-linecap="round"/>
  <path d="M385 195 C455 240 500 275 538 300" stroke="url(#gold3)" stroke-width="6" fill="none" stroke-linecap="round"/>
  <circle cx="385" cy="195" r="8" fill="#e8b84b"/>
  <path d="M524 297 L550 309 L535 326 Z" fill="#e8b84b"/>
  <text x="350" y="352" text-anchor="middle" font-family="Georgia, serif" fill="#e8b84b" font-size="24" opacity="0.92">Sole prop to S-Corp savings</text>
</svg>
