<svg xmlns="http://www.w3.org/2000/svg" viewBox="0 0 700 500" preserveAspectRatio="xMidYMid slice">
  <defs>
    <linearGradient id="bg2" x1="0" y1="0" x2="1" y2="1"><stop offset="0" stop-color="#0a1628"/><stop offset="1" stop-color="#123055"/></linearGradient>
    <linearGradient id="gold2" x1="0" y1="0" x2="0" y2="1"><stop offset="0" stop-color="#e8b84b"/><stop offset="1" stop-color="#c9953a"/></linearGradient>
  </defs>
  <rect width="700" height="500" fill="url(#bg2)"/>
  <g stroke="#ffffff" stroke-opacity="0.05"><path d="M0 125h700M0 250h700M0 375h700M140 0v500M280 0v500M420 0v500M560 0v500"/></g>
  <g>
    <rect x="70" y="240" width="90" height="200" rx="6" fill="#1e4272"/>
    <rect x="180" y="170" width="100" height="270" rx="6" fill="#27507f"/>
    <rect x="300" y="270" width="80" height="170" rx="6" fill="#1e4272"/>
    <rect x="400" y="130" width="110" height="310" rx="6" fill="#2d5c94"/>
    <rect x="530" y="220" width="95" height="220" rx="6" fill="#1e4272"/>
  </g>
  <g fill="url(#gold2)">
    <rect x="86" y="260" width="14" height="14" rx="2"/><rect x="116" y="260" width="14" height="14" rx="2"/>
    <rect x="86" y="292" width="14" height="14" rx="2"/><rect x="116" y="324" width="14" height="14" rx="2"/>
    <rect x="198" y="192" width="15" height="15" rx="2"/><rect x="230" y="192" width="15" height="15" rx="2"/>
    <rect x="198" y="226" width="15" height="15" rx="2"/><rect x="230" y="260" width="15" height="15" rx="2"/>
    <rect x="198" y="294" width="15" height="15" rx="2"/>
    <rect x="316" y="290" width="13" height="13" rx="2"/><rect x="344" y="322" width="13" height="13" rx="2"/>
    <rect x="418" y="152" width="16" height="16" rx="2"/><rect x="452" y="152" width="16" height="16" rx="2"/>
    <rect x="418" y="188" width="16" height="16" rx="2"/><rect x="452" y="224" width="16" height="16" rx="2"/>
    <rect x="418" y="260" width="16" height="16" rx="2"/><rect x="452" y="296" width="16" height="16" rx="2"/>
    <rect x="548" y="242" width="14" height="14" rx="2"/><rect x="578" y="274" width="14" height="14" rx="2"/>
    <rect x="548" y="306" width="14" height="14" rx="2"/>
  </g>
  <path d="M40 440 H660" stroke="#ffffff" stroke-opacity="0.35" stroke-width="2"/>
  <path d="M80 400 L220 350 L360 380 L500 300 L640 250" stroke="#11c4a8" stroke-width="5" fill="none" stroke-linecap="round"/>
  <circle cx="640" cy="250" r="9" fill="#11c4a8"/>
  <g font-family="Georgia, serif" fill="#e8b84b" font-size="26" opacity="0.9"><text x="60" y="478">Every door, accounted for</text></g>
</svg>
