<svg xmlns="http://www.w3.org/2000/svg" viewBox="0 0 700 500" preserveAspectRatio="xMidYMid slice">
  <defs>
    <linearGradient id="bg3" x1="0" y1="0" x2="1" y2="1"><stop offset="0" stop-color="#0a1628"/><stop offset="1" stop-color="#241a4f"/></linearGradient>
    <linearGradient id="gold3" x1="0" y1="0" x2="1" y2="0"><stop offset="0" stop-color="#c9953a"/><stop offset="1" stop-color="#e8b84b"/></linearGradient>
  </defs>
  <rect width="700" height="500" fill="url(#bg3)"/>
  <g stroke="#ffffff" stroke-opacity="0.05"><path d="M0 125h700M0 250h700M0 375h700M140 0v500M280 0v500M420 0v500M560 0v500"/></g>
  <g>
    <rect x="90" y="90" width="230" height="300" rx="12" fill="#122a4d" stroke="#2d5c94" stroke-width="2"/>
    <rect x="118" y="122" width="120" height="14" rx="7" fill="url(#gold3)"/>
    <rect x="118" y="156" width="174" height="9" rx="4.5" fill="#ffffff" opacity="0.28"/>
    <rect x="118" y="180" width="174" height="9" rx="4.5" fill="#ffffff" opacity="0.28"/>
    <rect x="118" y="204" width="130" height="9" rx="4.5" fill="#ffffff" opacity="0.28"/>
    <rect x="118" y="242" width="174" height="9" rx="4.5" fill="#ffffff" opacity="0.18"/>
    <rect x="118" y="266" width="150" height="9" rx="4.5" fill="#ffffff" opacity="0.18"/>
    <circle cx="258" cy="336" r="30" fill="none" stroke="#11c4a8" stroke-width="5"/>
    <path d="M244 336 l10 10 l20 -22" stroke="#11c4a8" stroke-width="5" fill="none" stroke-linecap="round" stroke-linejoin="round"/>
  </g>
  <path d="M380 170 C470 175 560 220 630 320" stroke="#e06a5a" stroke-width="4.5" fill="none" stroke-dasharray="2 9" stroke-linecap="round"/>
  <path d="M380 170 C480 240 560 320 630 400" stroke="url(#gold3)" stroke-width="6" fill="none" stroke-linecap="round"/>
  <circle cx="380" cy="170" r="8" fill="#e8b84b"/>
  <g font-family="Georgia, serif" fill="#e8b84b" font-size="26" opacity="0.9"><text x="378" y="120">Sole prop to S-Corp</text></g>
</svg>
