<svg xmlns="http://www.w3.org/2000/svg" viewBox="0 0 700 500" preserveAspectRatio="xMidYMid slice">
  <defs>
    <linearGradient id="bg" x1="0" y1="0" x2="1" y2="1"><stop offset="0" stop-color="#0a1628"/><stop offset="1" stop-color="#1a3a6b"/></linearGradient>
    <linearGradient id="gold" x1="0" y1="0" x2="1" y2="0"><stop offset="0" stop-color="#c9953a"/><stop offset="1" stop-color="#e8b84b"/></linearGradient>
  </defs>
  <rect width="700" height="500" fill="url(#bg)"/>
  <g stroke="#ffffff" stroke-opacity="0.05"><path d="M0 100h700M0 200h700M0 300h700M0 400h700M100 0v500M200 0v500M300 0v500M400 0v500M500 0v500M600 0v500"/></g>
  <g stroke="url(#gold)" stroke-width="7" fill="none" stroke-linecap="round">
    <path d="M120 430 V120"/><path d="M120 120 H460"/><path d="M120 120 L60 180"/>
    <path d="M150 150 L120 120"/><path d="M190 120 L120 190"/><path d="M260 120 L190 190" stroke-opacity="0.55"/>
  </g>
  <path d="M400 120 V210" stroke="#e8b84b" stroke-width="3" stroke-dasharray="6 7"/>
  <rect x="382" y="210" width="36" height="30" rx="4" fill="#e8b84b"/>
  <g>
    <rect x="330" y="330" width="44" height="100" rx="6" fill="#11c4a8"/>
    <rect x="390" y="290" width="44" height="140" rx="6" fill="#11c4a8" opacity="0.85"/>
    <rect x="450" y="360" width="44" height="70" rx="6" fill="#e06a5a"/>
    <rect x="510" y="260" width="44" height="170" rx="6" fill="url(#gold)"/>
    <rect x="570" y="310" width="44" height="120" rx="6" fill="#11c4a8" opacity="0.7"/>
  </g>
  <path d="M330 430 H620" stroke="#ffffff" stroke-opacity="0.35" stroke-width="2"/>
  <g font-family="Georgia, serif" fill="#e8b84b" font-size="26" opacity="0.9"><text x="60" y="472">Profit, project by project</text></g>
</svg>
