<svg xmlns="http://www.w3.org/2000/svg" viewBox="0 0 64 64">
  <defs>
    <linearGradient id="lbg" x1="0" y1="0" x2="1" y2="1">
      <stop offset="0" stop-color="#0d1e38"/><stop offset="1" stop-color="#1a3a6b"/>
    </linearGradient>
    <linearGradient id="lgold" x1="0" y1="0" x2="0" y2="1">
      <stop offset="0" stop-color="#e8b84b"/><stop offset="1" stop-color="#c9953a"/>
    </linearGradient>
  </defs>
  <rect width="64" height="64" rx="14" fill="url(#lbg)"/>
  <rect x="1.25" y="1.25" width="61.5" height="61.5" rx="12.75" fill="none" stroke="#e8b84b" stroke-opacity="0.35" stroke-width="1.5"/>
  <g fill="url(#lgold)">
    <rect x="20" y="14" width="7" height="34" rx="1"/>
    <rect x="20" y="14" width="24" height="6.5" rx="1"/>
    <rect x="20" y="29" width="18" height="6" rx="1"/>
    <rect x="16.5" y="14" width="14" height="3" rx="1.5"/>
    <rect x="16.5" y="45" width="14" height="3" rx="1.5"/>
    <rect x="42" y="14" width="3" height="10" rx="1.5"/>
  </g>
  <path d="M36 46 L44 40 L48 43 L56 33" stroke="#11c4a8" stroke-width="3.4" fill="none" stroke-linecap="round" stroke-linejoin="round"/>
  <path d="M56 33 l-6.5 0.5 M56 33 l-0.5 6.5" stroke="#11c4a8" stroke-width="3.4" stroke-linecap="round"/>
</svg>
